<svg width="78" height="125" viewBox="0 0 78 125" fill="none" xmlns="http://www.w3.org/2000/svg">
<g clip-path="url(#clip0_1_258)">
<path d="M0.0883179 62.8172C1.55367 70.7842 2.83407 78.7796 4.29942 86.7465C8.89465 93.4188 13.6464 99.9774 18.2416 106.65C24.9139 111.245 31.4724 115.997 38.1448 120.592C46.1117 122.057 54.1071 123.338 62.0741 124.803C70.041 123.338 78.0365 122.057 86.0034 120.592C92.6757 115.997 99.2342 111.245 105.907 106.65C110.502 99.9774 115.254 93.4188 119.849 86.7465C121.314 78.7796 122.595 70.7842 124.06 62.8172C122.595 54.8502 121.314 46.8548 119.849 38.8879C115.254 32.2155 110.502 25.657 105.907 18.9847C99.2342 14.3895 92.6757 9.63776 86.0034 5.04253C78.0507 3.56295 70.0553 2.28255 62.0883 0.8172C54.1214 2.28255 46.1259 3.56295 38.159 5.02831C31.4867 9.62353 24.9282 14.3753 18.2558 18.9705C13.6606 25.6428 8.90888 32.2013 4.31365 38.8736C2.83407 46.8406 1.55367 54.8502 0.0883179 62.8172ZM10.1466 84.328C8.83774 77.1719 7.67115 69.9732 6.37652 62.8172C7.67115 55.6469 8.83774 48.4624 10.1466 41.3064C14.2866 35.317 18.5404 29.4129 22.6946 23.4234C28.684 19.2835 34.5881 15.0155 40.5775 10.8755C47.7336 9.56663 54.9323 8.40004 62.0883 7.1054C69.2586 8.40004 76.4431 9.56663 83.5991 10.8755C89.5885 15.0155 95.4926 19.2692 101.482 23.4234C105.622 29.4129 109.89 35.317 114.03 41.3064C115.339 48.4624 116.505 55.6612 117.8 62.8172C116.491 69.9732 115.325 77.1719 114.016 84.328C109.876 90.3174 105.622 96.2215 101.468 102.211C95.4784 106.351 89.5743 110.619 83.5849 114.759C76.4288 116.068 69.2301 117.234 62.0741 118.529C54.9038 117.234 47.7193 116.068 40.5633 114.759C34.5739 110.619 28.6698 106.365 22.6803 102.211C18.5546 96.2215 14.2866 90.3174 10.1466 84.328Z" fill="white" fill-opacity="0.05"/>
<path d="M55.1599 62.8171C55.2879 63.7134 55.4159 64.6239 55.5582 65.5202C56.0988 66.2458 56.6394 66.9856 57.1943 67.7111C57.9198 68.2517 58.6454 68.8066 59.3852 69.3472C60.2815 69.4752 61.192 69.6175 62.0883 69.7456C62.9845 69.6175 63.8951 69.4895 64.7913 69.3472C65.5169 68.8066 66.2567 68.266 66.9822 67.7111C67.5229 66.9856 68.0777 66.26 68.6183 65.5202C68.7464 64.6239 68.8886 63.7134 69.0167 62.8171C68.8886 61.9209 68.7606 61.0104 68.6183 60.1141C68.0777 59.3885 67.5371 58.6487 66.9822 57.9232C66.2567 57.3825 65.5311 56.8277 64.7913 56.2871C63.8951 56.159 62.9845 56.0168 62.0883 55.8887C61.192 56.0168 60.2815 56.1448 59.3852 56.2871C58.6596 56.8277 57.9198 57.3683 57.1943 57.9232C56.6537 58.6487 56.0988 59.3743 55.5582 60.1141C55.4302 61.0104 55.2879 61.9066 55.1599 62.8171ZM60.9217 63.3008C60.8932 63.1444 60.879 62.9736 60.8505 62.8171C60.879 62.6607 60.8932 62.4899 60.9217 62.3334C61.0213 62.2054 61.1208 62.0774 61.2204 61.9351C61.3485 61.8355 61.4765 61.7359 61.6188 61.6505C61.7753 61.6221 61.946 61.6079 62.1025 61.5794C62.259 61.6079 62.4297 61.6221 62.5862 61.6505C62.7142 61.7501 62.8423 61.8497 62.9845 61.9351C63.0841 62.0631 63.1837 62.1912 63.2691 62.3334C63.2975 62.4899 63.3118 62.6607 63.3402 62.8171C63.3118 62.9736 63.2975 63.1444 63.2691 63.3008C63.1695 63.4289 63.0699 63.5569 62.9845 63.6992C62.8565 63.7988 62.7285 63.8984 62.5862 63.998C62.4297 64.0264 62.259 64.0406 62.1025 64.0691C61.946 64.0406 61.7753 64.0264 61.6188 63.998C61.4907 63.8984 61.3627 63.7988 61.2204 63.6992C61.1066 63.5569 61.0213 63.4289 60.9217 63.3008Z" fill="white" fill-opacity="0.05"/>
<path d="M15.3109 62.8172C16.3921 68.8351 17.388 74.8672 18.4692 80.8851C21.969 85.9071 25.5257 90.8722 29.0112 95.8943C34.0332 99.3798 38.9983 102.951 44.0204 106.436C50.0383 107.517 56.0704 108.499 62.0883 109.595C68.1062 108.513 74.1383 107.517 80.1562 106.436C85.1782 102.936 90.1434 99.3798 95.1654 95.8943C98.6509 90.8722 102.222 85.9071 105.707 80.8851C106.789 74.8672 107.77 68.8351 108.866 62.8172C107.784 56.7993 106.789 50.7671 105.707 44.7493C102.208 39.7272 98.6509 34.7621 95.1654 29.7401C90.1434 26.2545 85.1782 22.6836 80.1562 19.1981C74.1383 18.1169 68.1062 17.1352 62.0883 16.0398C56.0704 17.121 50.0383 18.1169 44.0204 19.1981C38.9983 22.6979 34.0332 26.2545 29.0112 29.7401C25.5257 34.7621 21.9548 39.7272 18.4692 44.7493C17.388 50.7671 16.4063 56.7993 15.3109 62.8172ZM48.0465 68.6217C47.7478 66.6868 47.4632 64.752 47.1929 62.8029C47.4632 60.8681 47.7478 58.919 48.0465 56.9842C49.1989 55.4051 50.3655 53.8259 51.5463 52.2609C53.1112 51.0801 54.6762 49.9135 56.2696 48.7612C58.2044 48.4624 60.1392 48.1779 62.0883 47.9076C64.0231 48.1779 65.9722 48.4624 67.907 48.7612C69.4862 49.9135 71.0653 51.0801 72.6303 52.2609C73.8111 53.8259 74.9777 55.3908 76.1301 56.9842C76.4288 58.919 76.7133 60.8539 76.9837 62.8029C76.7133 64.7378 76.4288 66.6868 76.1301 68.6217C74.9777 70.2008 73.8111 71.78 72.6303 73.3449C71.0653 74.5257 69.5004 75.6923 67.907 76.8447C65.9722 77.1435 64.0374 77.428 62.0883 77.6983C60.1535 77.428 58.2044 77.1435 56.2696 76.8447C54.6904 75.6923 53.1112 74.5257 51.5463 73.3449C50.3797 71.78 49.2131 70.2008 48.0465 68.6217ZM33.6207 63.998C33.5922 63.7988 33.6064 63.813 33.6349 64.0549C33.6776 64.3536 33.6776 64.3252 33.6207 63.9695C33.6207 63.9838 33.6207 63.9838 33.6207 63.998ZM42.7969 83.7731C42.6404 83.6593 42.6546 83.6593 42.8538 83.8158C43.0956 84.0007 43.0672 83.9865 42.7827 83.7589L42.7969 83.7731ZM63.2691 91.2706C63.0699 91.299 63.0842 91.2848 63.326 91.2563C63.6248 91.2137 63.5963 91.2137 63.2407 91.2706C63.2549 91.2706 63.2549 91.2706 63.2691 91.2706ZM83.0442 82.1086C82.9304 82.2651 82.9304 82.2508 83.0869 82.0517C83.2719 81.8098 83.2576 81.8383 83.03 82.1228L83.0442 82.1086ZM90.5417 61.6363C90.5702 61.8355 90.5702 61.8213 90.5275 61.5794C90.4848 61.2807 90.4848 61.3091 90.5417 61.6648C90.5417 61.6506 90.5417 61.6363 90.5417 61.6363ZM81.3797 41.8612C81.5362 41.975 81.522 41.975 81.3228 41.8185C81.0809 41.6336 81.1094 41.6478 81.3939 41.8755C81.3939 41.8612 81.3797 41.8612 81.3797 41.8612ZM60.9075 34.3495C61.1066 34.3211 61.0924 34.3353 60.8363 34.3638C60.5376 34.4064 60.566 34.4064 60.9217 34.3495H60.9075ZM41.1324 43.5258C41.2462 43.3693 41.2462 43.3835 41.0897 43.5827C40.9047 43.8245 40.919 43.7961 41.1466 43.5115C41.1324 43.5115 41.1324 43.5258 41.1324 43.5258ZM33.6207 61.6648C33.6633 61.3091 33.6776 61.2665 33.6349 61.5794C33.6064 61.8213 33.6064 61.8355 33.6207 61.6363C33.6207 61.6363 33.6207 61.6506 33.6207 61.6648ZM41.1466 82.1228C40.919 81.8383 40.9047 81.8098 41.0897 82.0517C41.2462 82.2508 41.2462 82.2651 41.1324 82.1086C41.1324 82.1086 41.1324 82.1228 41.1466 82.1228ZM60.9359 91.2706C60.5803 91.2279 60.5376 91.2137 60.8506 91.2563C61.0924 91.2848 61.1066 91.2848 60.9217 91.2706C60.9075 91.2706 60.9217 91.2706 60.9359 91.2706ZM81.3939 83.7589C81.1094 83.9865 81.0809 84.0007 81.3228 83.8158C81.522 83.6593 81.5362 83.6593 81.3797 83.7731L81.3939 83.7589ZM90.5417 63.9695C90.499 64.3252 90.4848 64.3679 90.5275 64.0549C90.5559 63.813 90.5559 63.7988 90.5417 63.998C90.5417 63.9838 90.5417 63.9838 90.5417 63.9695ZM83.03 43.5115C83.2576 43.7961 83.2719 43.8245 83.0869 43.5827C82.9304 43.3835 82.9304 43.3693 83.0442 43.5258L83.03 43.5115ZM63.2407 34.3495C63.5963 34.3922 63.639 34.4064 63.326 34.3638C63.0842 34.3353 63.0699 34.3353 63.2691 34.3495C63.2549 34.3495 63.2549 34.3495 63.2407 34.3495ZM42.7827 41.8755C43.0672 41.6478 43.0956 41.6336 42.8538 41.8185C42.6546 41.975 42.6404 41.975 42.7969 41.8612C42.7969 41.8612 42.7827 41.8612 42.7827 41.8755ZM33.7629 62.8172C33.6918 63.0021 33.6491 63.2013 33.6207 63.4147C33.578 63.6281 33.5922 63.8415 33.6349 64.0549C33.6349 64.2256 33.6776 64.3821 33.7487 64.5386C33.9194 64.9085 34.0332 65.193 34.332 65.4776C35.0006 66.132 35.8685 66.1889 36.7505 66.1178C38.9557 65.9044 41.0328 65.1077 43.0956 64.3679C43.3375 66.1035 43.5936 67.8392 43.8497 69.5749C38.5431 70.3858 30.5335 71.0544 29.7652 64.4959C29.6941 63.8984 29.6941 63.3436 29.7652 62.8314C29.6941 62.3192 29.6941 61.7644 29.7652 61.1669C30.5335 54.6084 38.5431 55.277 43.8497 56.0879C43.5793 57.8236 43.3375 59.5592 43.0956 61.2949C41.0185 60.5551 38.9557 59.7584 36.7505 59.545C35.8685 59.4597 35.0006 59.5308 34.332 60.1852C34.0332 60.4698 33.9194 60.7543 33.7487 61.1242C33.6776 61.2807 33.6349 61.4372 33.6349 61.6079C33.5922 61.8213 33.578 62.0347 33.6207 62.2481C33.6491 62.433 33.6918 62.6322 33.7629 62.8172ZM42.0571 42.786C41.8721 42.8713 41.7014 42.9709 41.5307 43.1132C41.3458 43.227 41.2035 43.3835 41.0897 43.5684C40.9759 43.6965 40.8763 43.8245 40.8336 43.981C40.7056 44.3651 40.5775 44.6354 40.5775 45.0622C40.5917 45.987 41.1608 46.6556 41.8437 47.2247C43.5509 48.6331 45.5853 49.5294 47.5628 50.4826C46.51 51.8768 45.4573 53.2853 44.4187 54.6937C40.0938 51.5212 33.9621 46.3284 38.0452 41.1357C38.4151 40.6662 38.8134 40.2821 39.226 39.9691C39.539 39.5565 39.9231 39.1582 40.3926 38.7883C45.5711 34.691 50.7638 40.8369 53.9506 45.1618C52.5422 46.2004 51.1337 47.2389 49.7395 48.3059C48.8005 46.3142 47.9043 44.294 46.4816 42.5868C45.9125 41.9039 45.2439 41.3348 44.3191 41.3206C43.9066 41.3206 43.622 41.4344 43.2379 41.5767C43.0814 41.6336 42.9391 41.719 42.8253 41.8328C42.6404 41.9466 42.4981 42.0889 42.3701 42.2738C42.242 42.4303 42.1424 42.601 42.0571 42.786ZM62.0883 34.4918C61.9033 34.4207 61.7042 34.378 61.4908 34.3495C61.2774 34.3068 61.064 34.3211 60.8506 34.3638C60.6798 34.3638 60.5234 34.4064 60.3669 34.4776C59.997 34.6483 59.7124 34.7621 59.4279 35.0609C58.7735 35.7295 58.7166 36.5973 58.7877 37.4794C59.0011 39.6845 59.7978 41.7616 60.5376 43.8245C58.8019 44.0664 57.0663 44.3225 55.3306 44.5785C54.5197 39.272 53.851 31.2623 60.4095 30.4941C61.0071 30.423 61.5619 30.423 62.0741 30.4941C62.5862 30.423 63.1411 30.423 63.7386 30.4941C70.2971 31.2623 69.6284 39.272 68.8175 44.5785C67.0819 44.3082 65.3462 44.0664 63.6105 43.8245C64.3503 41.7474 65.147 39.6845 65.3604 37.4794C65.4458 36.5973 65.3747 35.7295 64.7202 35.0609C64.4357 34.7621 64.1512 34.6483 63.7813 34.4776C63.6248 34.4064 63.4683 34.3638 63.2976 34.3638C63.0842 34.3211 62.8708 34.3068 62.6574 34.3495C62.4724 34.378 62.2732 34.4207 62.0883 34.4918ZM82.1195 42.786C82.0341 42.601 81.9345 42.4303 81.7923 42.2596C81.6785 42.0746 81.522 41.9324 81.337 41.8185C81.209 41.7047 81.0809 41.6051 80.9244 41.5625C80.5403 41.4344 80.27 41.3064 79.8432 41.3064C78.9185 41.3206 78.2498 41.8897 77.6808 42.5726C76.2723 44.2798 75.376 46.3142 74.4228 48.2917C73.0286 47.2389 71.6202 46.1861 70.2117 45.1476C73.3843 40.8227 78.577 34.691 83.7698 38.774C84.2393 39.1439 84.6234 39.5423 84.9364 39.9549C85.349 40.2678 85.7473 40.652 86.1172 41.1214C90.2145 46.3 84.0686 51.4927 79.7436 54.6795C78.7051 53.271 77.6523 51.8626 76.5995 50.4684C78.5913 49.5294 80.6115 48.6331 82.3187 47.2105C83.0015 46.6414 83.5706 45.987 83.5848 45.048C83.5848 44.6354 83.471 44.3509 83.3288 43.9668C83.2719 43.8103 83.1865 43.668 83.0727 43.5542C82.9589 43.3693 82.8024 43.227 82.6317 43.099C82.4609 42.9709 82.3044 42.8713 82.1195 42.786ZM90.4137 62.8172C90.4848 62.6322 90.5275 62.433 90.5559 62.2196C90.5986 62.0062 90.5844 61.7928 90.5417 61.5794C90.5417 61.4087 90.499 61.2522 90.4279 61.0957C90.2572 60.7258 90.1434 60.4413 89.8446 60.1568C89.1759 59.5023 88.3081 59.4454 87.4261 59.5166C85.2209 59.73 83.1438 60.5267 81.0809 61.2665C80.8391 59.5308 80.583 57.7951 80.3269 56.0595C85.6335 55.2486 93.6431 54.5799 94.4114 61.1384C94.4825 61.7359 94.4825 62.2908 94.4114 62.8029C94.4825 63.3151 94.4825 63.8699 94.4114 64.4675C93.6431 71.026 85.6335 70.3573 80.3269 69.5464C80.5972 67.8107 80.8391 66.0751 81.0809 64.3394C83.158 65.0792 85.2209 65.8759 87.4261 66.0893C88.3081 66.1747 89.1759 66.1035 89.8446 65.4491C90.1434 65.1646 90.2572 64.88 90.4279 64.5101C90.499 64.3536 90.5417 64.1972 90.5417 64.0264C90.5844 63.813 90.5986 63.5996 90.5559 63.3862C90.5275 63.2013 90.4848 63.0021 90.4137 62.8172ZM82.1195 82.8484C82.3044 82.763 82.4752 82.6634 82.6459 82.5212C82.8308 82.4073 82.9731 82.2508 83.0869 82.0659C83.2007 81.9379 83.3003 81.8098 83.343 81.6533C83.471 81.2692 83.5991 80.9989 83.5991 80.5721C83.5848 79.6474 83.0158 78.9787 82.3329 78.4096C80.6257 77.0012 78.5913 76.1049 76.6138 75.1517C77.6665 73.7575 78.7193 72.3491 79.7579 70.9406C84.0828 74.1132 90.2145 79.3059 86.1314 84.4987C85.7615 84.9681 85.3632 85.3523 84.9506 85.6653C84.6376 86.0778 84.2535 86.4762 83.784 86.8461C78.6055 90.9434 73.4127 84.7974 70.226 80.4725C71.6344 79.434 73.0429 78.3954 74.4371 77.3284C75.376 79.3201 76.2723 81.3403 77.695 83.0475C78.2641 83.7304 78.9327 84.2995 79.8574 84.3137C80.27 84.3137 80.5546 84.1999 80.9387 84.0576C81.0952 84.0007 81.2374 83.9154 81.3512 83.8016C81.5362 83.6877 81.6785 83.5312 81.8065 83.3605C81.9203 83.1898 82.0341 83.0333 82.1195 82.8484ZM62.0883 91.1425C62.2732 91.2137 62.4724 91.2563 62.6858 91.2848C62.8992 91.3275 63.1126 91.3133 63.326 91.2706C63.4967 91.2706 63.6532 91.2279 63.8097 91.1568C64.1796 90.986 64.4642 90.8722 64.7487 90.5735C65.4031 89.9048 65.46 89.037 65.3889 88.1549C65.1755 85.9498 64.3788 83.8727 63.639 81.8098C65.3747 81.568 67.1103 81.3119 68.846 81.0558C69.6569 86.3624 70.3256 94.372 63.767 95.1402C63.1695 95.2114 62.6147 95.2114 62.1025 95.1402C61.5904 95.2114 61.0355 95.2114 60.438 95.1402C53.8795 94.372 54.5481 86.3624 55.3591 81.0558C57.0947 81.3261 58.8304 81.568 60.566 81.8098C59.8262 83.8869 59.0295 85.9498 58.8161 88.1549C58.7308 89.037 58.8019 89.9048 59.4563 90.5735C59.7409 90.8722 60.0254 90.986 60.3953 91.1568C60.5518 91.2279 60.7083 91.2706 60.879 91.2706C61.0924 91.3133 61.3058 91.3275 61.5192 91.2848C61.7042 91.2563 61.9033 91.2137 62.0883 91.1425ZM42.0571 82.8484C42.1424 83.0333 42.242 83.204 42.3843 83.3748C42.4981 83.5597 42.6546 83.702 42.8396 83.8158C42.9676 83.9296 43.0956 84.0292 43.2521 84.0719C43.6363 84.1999 43.9066 84.3279 44.3334 84.3279C45.2581 84.3137 45.9268 83.7447 46.4958 83.0618C47.9043 81.3546 48.8005 79.3201 49.7537 77.3426C51.148 78.3954 52.5564 79.4482 53.9648 80.4867C50.7923 84.8117 45.5995 90.9434 40.4068 86.8603C39.9373 86.4904 39.5532 86.0921 39.2402 85.6795C38.8276 85.3665 38.4293 84.9824 38.0594 84.5129C33.9621 79.3344 40.108 74.1416 44.433 70.9548C45.4715 72.3633 46.5243 73.7717 47.5771 75.1659C45.5853 76.1049 43.5651 77.0012 41.8579 78.4239C41.175 78.9929 40.606 79.6616 40.5917 80.5863C40.5917 80.9989 40.7056 81.2834 40.8478 81.6676C40.9047 81.824 40.9901 81.9663 41.1039 82.0801C41.2177 82.2651 41.3742 82.4073 41.5449 82.5354C41.7014 82.6492 41.8721 82.763 42.0571 82.8484ZM24.5156 62.8172C24.416 63.6708 24.4444 64.5955 24.6009 65.6056C25.611 71.7231 30.8891 73.3592 36.466 73.4303C32.5679 77.428 29.9928 82.3078 33.6064 87.3582C34.2039 88.1834 34.8442 88.852 35.5128 89.3926C36.0392 90.0613 36.7221 90.7015 37.5472 91.299C42.5977 94.9126 47.4775 92.3376 51.4752 88.4395C51.5463 94.0163 53.1824 99.2944 59.2999 100.305C60.31 100.475 61.2347 100.489 62.0883 100.39C62.9419 100.489 63.8666 100.461 64.8767 100.305C70.9942 99.2944 72.6303 94.0163 72.7014 88.4395C76.6991 92.3376 81.5789 94.9126 86.6294 91.299C87.4545 90.7015 88.1232 90.0613 88.6638 89.3926C89.3324 88.8663 89.9726 88.1834 90.5702 87.3582C94.1837 82.3078 91.6087 77.428 87.7106 73.4303C93.2875 73.3592 98.5656 71.7231 99.5757 65.6056C99.7464 64.5955 99.7606 63.6708 99.661 62.8172C99.7606 61.9636 99.7322 61.0388 99.5757 60.0287C98.5656 53.9112 93.2875 52.2752 87.7106 52.204C91.6087 48.2063 94.1837 43.3266 90.5702 38.2761C89.9726 37.4509 89.3324 36.7823 88.6638 36.2417C88.1374 35.573 87.4545 34.9328 86.6294 34.3353C81.5789 30.7217 76.6991 33.2968 72.7014 37.1949C72.6303 31.618 70.9942 26.3399 64.8767 25.3298C63.8666 25.1591 62.9419 25.1448 62.0883 25.2444C61.2347 25.1448 60.31 25.1733 59.2999 25.3298C53.1824 26.3399 51.5463 31.618 51.4752 37.1949C47.4775 33.2968 42.5977 30.7217 37.5472 34.3353C36.7221 34.9328 36.0534 35.573 35.5128 36.2417C34.8442 36.7681 34.2039 37.4509 33.6064 38.2761C29.9928 43.3266 32.5679 48.2063 36.466 52.204C30.8891 52.2752 25.611 53.9112 24.6009 60.0287C24.4444 61.0388 24.416 61.9636 24.5156 62.8172ZM22.1255 79.3628C21.1438 73.8571 20.2333 68.3229 19.2517 62.8172C20.2333 57.2972 21.1438 51.7772 22.1255 46.2715C25.3265 41.6763 28.5844 37.1237 31.7854 32.5285C36.3806 29.3275 40.9332 26.0696 45.5284 22.8686C51.0341 21.8869 56.5683 20.9764 62.0741 19.9948C67.594 20.9764 73.114 21.8869 78.6197 22.8686C83.215 26.0696 87.7675 29.3275 92.3627 32.5285C95.5637 37.1237 98.8216 41.6763 102.023 46.2715C103.004 51.7772 103.915 57.3114 104.896 62.8172C103.915 68.3229 103.004 73.8571 102.023 79.3628C98.8216 83.958 95.5637 88.5106 92.3627 93.1058C87.7675 96.3068 83.215 99.5648 78.6197 102.766C73.114 103.747 67.5798 104.658 62.0741 105.64C56.5541 104.658 51.0341 103.747 45.5284 102.766C40.9332 99.5648 36.3806 96.3068 31.7854 93.1058C28.5986 88.5106 25.3265 83.958 22.1255 79.3628Z" fill="white" fill-opacity="0.05"/>
</g>
<defs>
<clipPath id="clip0_1_258">
<rect width="124" height="124" fill="white" transform="translate(0.0883179 0.8172)"/>
</clipPath>
</defs>
</svg>
